<?xml version="1.0" encoding="UTF-8" standalone="no"?>
<svg
   width="24px"
   height="24px"
   version="1.1"
   id="Layer_1"
   x="0px"
   y="0px"
   viewBox="0 0 74.4 74.4"
   style="enable-background:new 0 0 74.4 74.4;"
   xml:space="preserve"
   preserveAspectRatio="xMinYMid meet"
   sodipodi:docname="meinMOODLE2.svg"
   inkscape:version="1.1.2 (0a00cf5339, 2022-02-04)"
   inkscape:export-filename="meinMOODLE.png"
   inkscape:export-xdpi="96"
   inkscape:export-ydpi="96"
   fill="currentColor"
   xmlns:inkscape="http://www.inkscape.org/namespaces/inkscape"
   xmlns:sodipodi="http://sodipodi.sourceforge.net/DTD/sodipodi-0.dtd"
   xmlns="http://www.w3.org/2000/svg"
   xmlns:svg="http://www.w3.org/2000/svg"
   xmlns:rdf="http://www.w3.org/1999/02/22-rdf-syntax-ns#"
   xmlns:cc="http://creativecommons.org/ns#"
   xmlns:dc="http://purl.org/dc/elements/1.1/"><title
   id="title40787"
   fill="currentColor">meinMOODLE</title><defs
   id="defs33138"
   fill="currentColor" /><sodipodi:namedview
   id="namedview33136"
   pagecolor="#ffffff"
   bordercolor="#000000"
   borderopacity="0.25"
   inkscape:showpageshadow="2"
   inkscape:pageopacity="0.0"
   inkscape:pagecheckerboard="0"
   inkscape:deskcolor="#d1d1d1"
   showgrid="false"
   inkscape:lockguides="true"
   inkscape:zoom="13.906433"
   inkscape:cx="8.9167366"
   inkscape:cy="14.66947"
   inkscape:window-width="1920"
   inkscape:window-height="939"
   inkscape:window-x="0"
   inkscape:window-y="32"
   inkscape:window-maximized="1"
   inkscape:current-layer="g40727"
   fill="currentColor"
   inkscape:pageshadow="2"><inkscape:grid
     type="xygrid"
     id="grid40643"
     fill="currentColor" /></sodipodi:namedview>

<g
   id="g33308"
   transform="translate(-87.829856,-1.3055156e-5)"
   fill="currentColor"><rect
     style="fill:#000000;fill-opacity:0"
     id="rect36676"
     width="67.487167"
     height="67.48716"
     x="91.286278"
     y="3.4564323"
     fill="currentColor" /><g
     id="g40727"
     transform="translate(0.10390466,-0.75347951)"
     fill="currentColor"><g
       aria-label="mein"
       transform="matrix(0.89134439,0,0,1.3966415,-6.1764387,-10.987168)"
       id="text13050"
       style="font-weight:bold;font-size:25.6827px;font-family:Arial;-inkscape-font-specification:'Arial, Bold';fill:#00718b;fill-opacity:1"
       fill="currentColor"><path
         d="m 159.44461,15.217104 v -4.122473 h 4.45544 v 4.122473 z m 0,19.121931 V 17.500319 h 4.45544 v 16.838716 z"
         style="font-size:32.4724px;fill:#00afd7;fill-opacity:1"
         id="path40733"
         fill="currentColor" /></g><path
       d="m 88.83278,8.3917086 h 4.392495 v 3.8531754 q 2.357363,-4.4909399 5.613577,-4.4909399 1.729848,0 3.001818,1.1160905 1.27195,1.1160917 2.08601,3.3748494 1.18715,-2.2587577 2.56087,-3.3748494 1.37371,-1.1160905 2.93398,-1.1160905 1.98426,0 3.35797,1.2755313 1.37371,1.2489616 2.05209,3.6937336 0.49183,1.807006 0.49183,5.846195 v 18.043485 h -4.7656 V 20.482705 q 0,-4.198632 -0.49183,-5.421018 -0.66141,-1.594418 -2.03513,-1.594418 -1.00061,0 -1.8825,0.956651 -0.88189,0.95665 -1.27196,2.816804 -0.39006,1.833579 -0.39006,5.819621 V 36.612889 H 99.720737 V 21.147045 q 0,-4.118911 -0.254386,-5.314725 -0.254397,-1.195811 -0.797098,-1.78043 -0.525746,-0.584621 -1.441549,-0.584621 -1.102365,0 -1.984251,0.930078 -0.881896,0.930077 -1.271962,2.683935 -0.373102,1.753859 -0.373102,5.819621 V 36.612889 H 88.83278 Z"
       style="font-weight:bold;font-size:32.4724px;font-family:Arial;-inkscape-font-specification:'Arial, Bold';fill:#00afd7;fill-opacity:1;stroke-width:1.3389"
       id="path40729"
       fill="currentColor" /><path
       d="m 128.31329,28.014718 4.74864,1.248962 q -0.91581,4.092335 -2.90006,6.244798 -1.9673,2.12589 -4.9352,2.12589 -4.69777,0 -6.95336,-4.809824 -1.78075,-3.853175 -1.78075,-9.725943 0,-7.015435 2.34041,-10.974904 2.3404,-3.9860404 5.91883,-3.9860404 4.01939,0 6.34283,4.1720564 2.32345,4.145483 2.22169,12.728761 h -11.93943 q 0.051,3.321702 1.15323,5.181855 1.10236,1.833578 2.74743,1.833578 1.11932,0 1.8825,-0.956648 0.76316,-0.95665 1.15324,-3.082541 z m 0.27134,-7.546906 q -0.051,-3.24198 -1.06843,-4.916118 -1.01757,-1.700713 -2.47608,-1.700713 -1.56027,0 -2.57784,1.780433 -1.01756,1.780432 -1.00061,4.836398 z"
       style="font-weight:bold;font-size:32.4724px;font-family:Arial;-inkscape-font-specification:'Arial, Bold';fill:#00afd7;fill-opacity:1;stroke-width:1.3389"
       id="path40731"
       fill="currentColor" /><path
       d="m 161.01465,37.451561 h -4.7656 v -14.4029 q 0,-4.57066 -0.30526,-5.899343 -0.30527,-1.355252 -1.0006,-2.099314 -0.67839,-0.744063 -1.64507,-0.744063 -1.23804,0 -2.22168,1.062946 -0.98365,1.062945 -1.35676,2.816803 -0.35616,1.753858 -0.35616,6.483961 v 12.78191 h -4.7656 V 9.2303806 h 4.42642 v 4.1454854 q 2.35736,-4.7832499 5.9358,-4.7832499 1.57722,0 2.88311,0.9035015 1.30587,0.8769294 1.96729,2.2587584 0.67837,1.381827 0.93277,3.135686 0.27134,1.753859 0.27134,5.022413 z"
       style="font-weight:bold;font-size:32.4724px;font-family:Arial;-inkscape-font-specification:'Arial, Bold';fill:#00afd7;fill-opacity:1;stroke-width:1.3389"
       id="path40735"
       fill="currentColor" /><g
       id="g40710"
       transform="matrix(1.2,0,0,1.620428,-24.974994,-26.189476)"
       fill="currentColor"><g
         aria-label="O"
         transform="scale(0.90682015,1.1027545)"
         id="text13104-4"
         style="font-weight:bold;font-size:12.4766px;font-family:Arial;-inkscape-font-specification:'Arial, Bold'"
         inkscape:transform-center-x="29.42523"
         inkscape:transform-center-y="-13.375105"
         fill="currentColor"><path
           d="m 121.56721,45.494006 q 0,-2.72304 1.76328,-4.41936 1.76328,-1.71864 4.50864,-1.71864 2.72304,0 4.48632,1.71864 1.7856,1.69632 1.7856,4.41936 0,2.72304 -1.7856,4.44168 -1.76328,1.69632 -4.48632,1.69632 -2.72304,0 -4.50864,-1.71864 -1.76328,-1.71864 -1.76328,-4.41936 z m 2.79,0 q 0,1.60704 0.93744,2.70072 0.95976,1.09368 2.54448,1.09368 1.58472,0 2.5668,-1.116 0.91512,-1.07136 0.91512,-2.6784 0,-1.62936 -0.93744,-2.70072 -0.93744,-1.07136 -2.54448,-1.07136 -1.58472,0 -2.54448,1.07136 -0.93744,1.07136 -0.93744,2.70072 z"
           style="font-weight:normal;font-size:22.32px;font-family:'Soul Papa';-inkscape-font-specification:'Soul Papa, Normal'"
           id="path40738"
           fill="currentColor" /></g><g
         aria-label="M"
         transform="scale(0.90682015,1.1027545)"
         id="text13104-4-4"
         style="font-weight:bold;font-size:12.4766px;font-family:Arial;-inkscape-font-specification:'Arial, Bold'"
         inkscape:transform-center-x="29.42523"
         inkscape:transform-center-y="-13.375105"
         fill="currentColor"><path
           d="m 117.92994,51.431125 v -6.56208 q 0,-3.16944 -2.07576,-3.16944 -2.09808,0 -2.09808,2.54448 v 7.18704 h -2.74536 v -6.56208 q 0,-3.16944 -2.09808,-3.16944 -2.09808,0 -2.09808,3.16944 v 6.56208 h -2.74536 v -7.63344 q 0,-2.16504 1.36152,-3.348 1.27224,-1.09368 3.48192,-1.09368 2.16504,0 3.48192,1.27224 1.29456,-1.27224 3.4596,-1.27224 2.18736,0 3.48192,1.09368 1.36152,1.18296 1.36152,3.348 v 7.63344 z"
           style="font-weight:normal;font-size:22.32px;font-family:'Soul Papa';-inkscape-font-specification:'Soul Papa, Normal'"
           id="path40741"
           fill="currentColor" /></g><g
         aria-label="O"
         transform="scale(0.90682015,1.1027545)"
         id="text13104-4-3"
         style="font-weight:bold;font-size:12.4766px;font-family:Arial;-inkscape-font-specification:'Arial, Bold'"
         inkscape:transform-center-x="29.42523"
         inkscape:transform-center-y="-13.375105"
         fill="currentColor"><path
           d="m 134.45869,45.494006 q 0,-2.72304 1.76328,-4.41936 1.76328,-1.71864 4.50864,-1.71864 2.72304,0 4.48632,1.71864 1.7856,1.69632 1.7856,4.41936 0,2.72304 -1.7856,4.44168 -1.76328,1.69632 -4.48632,1.69632 -2.72304,0 -4.50864,-1.71864 -1.76328,-1.71864 -1.76328,-4.41936 z m 2.79,0 q 0,1.60704 0.93744,2.70072 0.95976,1.09368 2.54448,1.09368 1.58472,0 2.5668,-1.116 0.91512,-1.07136 0.91512,-2.6784 0,-1.62936 -0.93744,-2.70072 -0.93744,-1.07136 -2.54448,-1.07136 -1.58472,0 -2.54448,1.07136 -0.93744,1.07136 -0.93744,2.70072 z"
           style="font-weight:normal;font-size:22.32px;font-family:'Soul Papa';-inkscape-font-specification:'Soul Papa, Normal'"
           id="path40744"
           fill="currentColor" /></g><g
         aria-label="D"
         transform="scale(0.90682015,1.1027545)"
         id="text13104-4-3-9"
         style="font-weight:bold;font-size:12.4766px;font-family:Arial;-inkscape-font-specification:'Arial, Bold'"
         inkscape:transform-center-x="29.42523"
         inkscape:transform-center-y="-13.375105"
         fill="currentColor"><path
           d="m 151.24001,51.431125 h -3.61584 V 39.556886 h 3.61584 q 2.38824,0 3.6828,0.7812 1.31688,0.7812 2.03112,2.14272 0.71424,1.36152 0.71424,2.92392 0,1.584719 -0.73656,3.013199 -0.73656,1.42848 -2.05344,2.232 -1.31688,0.7812 -3.63816,0.7812 z m 0.15624,-9.753839 h -1.02672 v 7.633439 h 1.116 q 1.62936,0 2.54448,-1.116 0.84816,-1.02672 0.84816,-2.700719 0,-1.71864 -0.87048,-2.72304 -0.91512,-1.09368 -2.61144,-1.09368 z"
           style="font-weight:normal;font-size:22.32px;font-family:'Soul Papa';-inkscape-font-specification:'Soul Papa, Normal'"
           id="path40747"
           fill="currentColor" /></g><g
         aria-label="L"
         transform="scale(0.90682015,1.1027545)"
         id="text13104-4-3-9-5"
         style="font-weight:bold;font-size:12.4766px;font-family:Arial;-inkscape-font-specification:'Arial, Bold'"
         inkscape:transform-center-x="29.42523"
         inkscape:transform-center-y="-13.375105"
         fill="currentColor"><path
           d="m 158.28979,51.408806 v -11.8296 h 2.74536 v 9.7092 h 3.1248 v 2.1204 z"
           style="font-weight:normal;font-size:22.32px;font-family:'Soul Papa';-inkscape-font-specification:'Soul Papa, Normal'"
           id="path40750"
           fill="currentColor" /></g><g
         aria-label="E"
         transform="scale(0.90682015,1.1027545)"
         id="text13104-4-3-9-5-6"
         style="font-weight:bold;font-size:12.4766px;font-family:Arial;-inkscape-font-specification:'Arial, Bold'"
         inkscape:transform-center-x="29.42523"
         inkscape:transform-center-y="-13.375105"
         fill="currentColor"><path
           d="m 164.78157,51.408806 v -11.8296 h 6.56208 v 2.0088 h -3.81672 v 2.83464 h 3.81672 v 2.0088 h -3.81672 v 2.85696 h 3.81672 v 2.1204 z"
           style="font-weight:normal;font-size:22.32px;font-family:'Soul Papa';-inkscape-font-specification:'Soul Papa, Normal'"
           id="path40753"
           fill="currentColor" /></g></g></g><text
     xml:space="preserve"
     style="font-style:normal;font-variant:normal;font-weight:normal;font-stretch:normal;font-size:24.8px;font-family:'Soul Papa';-inkscape-font-specification:'Soul Papa, Normal';font-variant-ligatures:normal;font-variant-caps:normal;font-variant-numeric:normal;font-variant-east-asian:normal"
     x="158.05273"
     y="65.100014"
     id="text36485"
     fill="currentColor"><tspan
       sodipodi:role="line"
       id="tspan36483"
       fill="currentColor" /></text><text
     xml:space="preserve"
     style="font-style:normal;font-variant:normal;font-weight:normal;font-stretch:normal;font-size:24.8px;font-family:'Soul Papa';-inkscape-font-specification:'Soul Papa, Normal';font-variant-ligatures:normal;font-variant-caps:normal;font-variant-numeric:normal;font-variant-east-asian:normal"
     x="158.05273"
     y="37.200012"
     id="text36489"
     fill="currentColor"><tspan
       sodipodi:role="line"
       id="tspan36487"
       fill="currentColor" /></text></g><metadata
   id="metadata40785"
   fill="currentColor"><rdf:RDF
     fill="currentColor"><cc:Work
       rdf:about=""
       fill="currentColor"><dc:title
         fill="currentColor">meinMOODLE</dc:title><dc:creator
         fill="currentColor"><cc:Agent
           fill="currentColor"><dc:title
             fill="currentColor">Christian-Maximilian Steier</dc:title></cc:Agent></dc:creator><dc:contributor
         fill="currentColor"><cc:Agent
           fill="currentColor"><dc:title
             fill="currentColor">Markus Dahm</dc:title></cc:Agent></dc:contributor><dc:description
         fill="currentColor">Logo für meinMOODLE, ein Dienst der FB Medien an der HSD</dc:description></cc:Work></rdf:RDF></metadata></svg>
