<?xml version="1.0" encoding="UTF-8" standalone="no"?>
<!-- Generator: Adobe Illustrator 25.0.0, SVG Export Plug-In . SVG Version: 6.00 Build 0)  -->

<svg
   version="1.1"
   id="Ebene_1"
   x="0px"
   y="0px"
   viewBox="0 0 65 65"
   style="enable-background:new 0 0 65 65;"
   xml:space="preserve"
   sodipodi:docname="mod_feedbackbox.svg"
   inkscape:version="1.3.1 (91b66b0, 2023-11-16)"
   xmlns:inkscape="http://www.inkscape.org/namespaces/inkscape"
   xmlns:sodipodi="http://sodipodi.sourceforge.net/DTD/sodipodi-0.dtd"
   xmlns="http://www.w3.org/2000/svg"
   xmlns:svg="http://www.w3.org/2000/svg"><defs
   id="defs1">
	

		
	</defs><sodipodi:namedview
   id="namedview1"
   pagecolor="#ffffff"
   bordercolor="#000000"
   borderopacity="0.25"
   inkscape:showpageshadow="2"
   inkscape:pageopacity="0.0"
   inkscape:pagecheckerboard="0"
   inkscape:deskcolor="#d1d1d1"
   inkscape:zoom="3.6307692"
   inkscape:cx="30.29661"
   inkscape:cy="31.398305"
   inkscape:window-width="1248"
   inkscape:window-height="449"
   inkscape:window-x="37"
   inkscape:window-y="25"
   inkscape:window-maximized="0"
   inkscape:current-layer="Gruppe_69" />
<style
   type="text/css"
   id="style1">
	.st0{fill:#FFBC50;}
	.st1{fill:#FD980F;}
	.st2{fill:none;stroke:#000000;stroke-width:2;stroke-linecap:round;stroke-linejoin:round;stroke-miterlimit:10;}
</style>
    <g
   id="Gruppe_69"
   transform="translate(-1.073,-182.418)"
   style="fill:none;stroke-width:1;stroke-dasharray:none">
			<g
   id="_1F63B"
   transform="translate(3,188.25)"
   style="fill:none;stroke-width:3;stroke-dasharray:none">
				<g
   id="color"
   style="fill:none;stroke-width:3;stroke-dasharray:none">
					<path
   id="Pfad_178"
   class="st0"
   d="M 53.2,40.6 C 49.6,49.7 40.6,55.8 30,55.8 20.9,55.8 10.8,50 7.2,40.8 L 6.8,39.6 C 5.7,36.7 6,34.1 6,30.9 L 9.8,-1.5 20,8.6 c 3,-1.3 6.2,-1.9 9.5,-1.9 h 1.1 c 3.3,0 6.5,0.7 9.5,1.9 L 51.3,-2.5 55,31.4 c 0,3.1 -0.6,6.3 -1.8,9.2"
   style="fill:none;stroke-width:3;stroke-dasharray:none" />
                    <path
   id="Pfad_179"
   class="st1"
   d="m 30,55.8 c 10.6,0.3 20.3,-6 23.9,-15.1 L 54,40.5 c 1.2,-3.2 1.2,-6.7 1.3,-10.2 L 51.5,-2.4"
   style="fill:none;stroke-width:3;stroke-dasharray:none" />
				</g>
                <g
   id="line"
   style="fill:none;stroke-width:3;stroke-dasharray:none">
					<line
   id="Linie_71"
   class="st2"
   x1="56.599998"
   y1="45.799999"
   x2="47.099998"
   y2="40.799999"
   style="fill:none;stroke-width:3;stroke-dasharray:none" />
                    <path
   id="Pfad_183"
   class="st2"
   d="M 47.2,38.7"
   style="fill:none;stroke-width:3;stroke-dasharray:none" />
                    <path
   id="Pfad_184"
   class="st2"
   d="M 56.5,43.9"
   style="fill:none;stroke-width:3;stroke-dasharray:none" />
                    <line
   id="Linie_72"
   class="st2"
   x1="52.400002"
   y1="51.099998"
   x2="43"
   y2="45.900002"
   style="fill:none;stroke-width:3;stroke-dasharray:none" />
                    <path
   id="Pfad_185"
   class="st2"
   d="M 40.9,47"
   style="fill:none;stroke-width:3;stroke-dasharray:none" />
                    <path
   id="Pfad_186"
   class="st2"
   d="M 50.3,52.2"
   style="fill:none;stroke-width:3;stroke-dasharray:none" />
                    <path
   id="Pfad_187"
   class="st2"
   d="M 7.9,39.8 C 6.8,37 6.2,33.9 6.2,30.9 L 9.8,-1.9 20.8,8.8 C 23.7,7.6 26.8,7 30,7 h 1 c 3.2,0 6.4,0.6 9.3,1.9 l 11,-10.7 3.7,32.7 c 0,3.1 -0.6,6.1 -1.7,8.9"
   style="fill:none;stroke-width:3;stroke-dasharray:none" />
                    <path
   id="Pfad_188"
   class="st2"
   d="m 17.4,51.2 c 3.8,2.4 8.2,3.6 12.6,3.6 h 1 c 4.5,0 8.9,-1.2 12.6,-3.6"
   style="fill:none;stroke-width:3;stroke-dasharray:none" />
                    <line
   id="Linie_73"
   class="st2"
   x1="4.5999999"
   y1="45.900002"
   x2="13.9"
   y2="40.700001"
   style="fill:none;stroke-width:3;stroke-dasharray:none" />
                    <path
   id="Pfad_189"
   class="st2"
   d="M 13.9,38.7"
   style="fill:none;stroke-width:3;stroke-dasharray:none" />
                    <line
   id="Linie_74"
   class="st2"
   x1="8.6999998"
   y1="51.099998"
   x2="18.1"
   y2="45.900002"
   style="fill:none;stroke-width:3;stroke-dasharray:none" />
                    <path
   id="Pfad_190"
   class="st2"
   d="M 20.2,47"
   style="fill:none;stroke-width:3;stroke-dasharray:none" />
                    <path
   id="Pfad_191"
   class="st2"
   d="M 10.8,52.2"
   style="fill:none;stroke-width:3;stroke-dasharray:none" />
                    <path
   id="Pfad_193"
   class="st2"
   d="M 57.6,44"
   style="fill:none;stroke-width:3;stroke-dasharray:none" />
				</g>
			</g>
		</g>
</svg>
