<?xml version="1.0" encoding="UTF-8" standalone="no"?>
<!-- Created with Inkscape (http://www.inkscape.org/) -->

<svg
   width="420mm"
   height="420mm"
   viewBox="0 0 420 420"
   version="1.1"
   id="svg1"
   inkscape:export-filename="../Desktop/ok.thermo.png"
   inkscape:export-xdpi="96"
   inkscape:export-ydpi="96"
   inkscape:version="1.3.2 (091e20e, 2023-11-25)"
   sodipodi:docname="ok.thermo.svg"
   xmlns:inkscape="http://www.inkscape.org/namespaces/inkscape"
   xmlns:sodipodi="http://sodipodi.sourceforge.net/DTD/sodipodi-0.dtd"
   xmlns="http://www.w3.org/2000/svg"
   xmlns:svg="http://www.w3.org/2000/svg">
  <sodipodi:namedview
     id="namedview1"
     pagecolor="#ffffff"
     bordercolor="#000000"
     borderopacity="0.25"
     inkscape:showpageshadow="2"
     inkscape:pageopacity="0.0"
     inkscape:pagecheckerboard="0"
     inkscape:deskcolor="#d1d1d1"
     inkscape:document-units="mm"
     inkscape:zoom="0.14866305"
     inkscape:cx="1254.5148"
     inkscape:cy="824.01108"
     inkscape:window-width="1440"
     inkscape:window-height="900"
     inkscape:window-x="0"
     inkscape:window-y="0"
     inkscape:window-maximized="0"
     inkscape:current-layer="layer1" />
  <defs
     id="defs1" />
  <g
     inkscape:label="Ebene 1"
     inkscape:groupmode="layer"
     id="layer1">
    <path
       d="m 356.62142,45.124767 c 2.50017,0.402298 4.35514,0.946581 6.66712,1.964155 6.85531,3.005394 11.61369,8.164259 13.62996,14.74299 l 0.61832,1.987829 0.13441,100.148249 0.13442,100.14823 2.2851,1.32522 c 11.74811,6.91004 19.19485,16.73081 22.07139,29.17835 0.72586,3.07639 0.96781,10.01009 0.51079,13.48878 -2.52706,18.86062 -18.44211,34.36088 -39.54569,38.4785 -26.6147,5.18253 -53.28318,-9.11083 -60.16537,-32.30207 -1.34417,-4.51992 -1.50547,-5.84514 -1.50547,-11.57195 0,-5.65581 0.21507,-7.12302 1.63989,-11.80859 2.44641,-7.97494 8.03818,-15.92623 15.05478,-21.36906 2.28511,-1.7985 5.7262,-4.04663 7.55429,-4.94589 l 1.15599,-0.56794 v -12.25822 -12.23456 h -8.73716 -8.73714 v -2.83975 -2.83974 h 8.73714 8.73716 v -18.10335 -18.10336 h -8.73716 -8.73714 v -2.83974 -2.83974 h 8.73714 8.73716 v -18.10336 -18.10336 h -8.73716 -8.73714 v -2.83974 -2.83975 l 8.65649,-0.0473 8.68339,-0.071 0.0806,-18.05604 0.0538,-18.03235 h -8.73716 -8.73714 v -2.95807 -2.95806 h 8.73714 8.73716 V 86.348356 c 0,-20.114841 0.0538,-21.724027 0.51078,-23.711845 1.02158,-4.4016 3.41421,-8.164259 7.25855,-11.477291 5.8875,-5.040543 14.08698,-7.312337 21.99074,-6.034453 z m -9.14041,8.258917 c -5.08098,1.419872 -9.14039,4.945885 -10.88782,9.465806 l -0.72587,1.916828 -0.0806,102.041402 -0.0538,102.04141 -3.17225,1.63285 c -8.3339,4.35428 -13.49554,9.01618 -17.36677,15.71324 -6.82842,11.78493 -6.10256,25.53402 1.93561,36.51436 6.12946,8.4009 15.59246,14.08038 27.01797,16.25752 4.03252,0.75726 11.99005,0.75726 16.13011,0 13.01164,-2.41379 23.38868,-9.44215 29.35682,-19.90186 5.64555,-9.91544 5.59178,-22.4103 -0.13441,-32.46772 -3.81746,-6.74439 -9.48989,-11.92692 -17.58184,-16.09188 l -3.38732,-1.7275 V 167.8253 c 0,-64.58048 -0.10751,-101.497121 -0.26884,-102.538362 -0.56454,-3.313037 -2.01627,-5.892463 -4.78527,-8.329911 -1.80119,-1.585523 -4.81215,-3.147381 -7.04348,-3.620672 -0.67208,-0.141987 -1.45171,-0.331303 -1.74743,-0.378632 -1.02157,-0.212981 -5.91437,0.07099 -7.2048,0.425961 z"
       id="path1"
       style="fill:#000000;stroke:none;stroke-width:0.0252228" />
    <text
       xml:space="preserve"
       style="font-weight:bold;font-size:132.373px;font-family:'DIN Alternate';-inkscape-font-specification:'DIN Alternate Bold';fill:#acaac3;stroke-width:8.25441"
       x="128.78085"
       y="234.81726"
       id="text1"
       transform="scale(0.9890877,1.0110327)"><tspan
         sodipodi:role="line"
         id="tspan1"
         style="font-size:132.373px;fill:#e60028;fill-opacity:1;stroke-width:8.25441"
         x="128.78085"
         y="234.81726">OK</tspan></text>
    <text
       xml:space="preserve"
       style="font-weight:bold;font-size:104.173px;font-family:'DIN Alternate';-inkscape-font-specification:'DIN Alternate Bold';fill:#000000;fill-opacity:1;stroke-width:7.77534"
       x="37.052727"
       y="308.57019"
       id="text2"
       transform="scale(0.91729853,1.0901576)"><tspan
         sodipodi:role="line"
         id="tspan2"
         style="font-size:104.173px;fill:#e60028;fill-opacity:1;stroke-width:7.77534"
         x="37.052727"
         y="308.57019">Therm</tspan></text>
    <ellipse
       style="fill:#e60028;fill-opacity:1;stroke-width:6.43739"
       id="path3"
       cx="351.74365"
       cy="303.29239"
       rx="30.832624"
       ry="26.427963" />
    <rect
       style="fill:#e60028;fill-opacity:1;stroke-width:5.44428"
       id="rect4"
       width="20.13559"
       height="7.5508471"
       x="342.30505"
       y="261.13348" />
    <rect
       style="fill:#e60028;fill-opacity:1;stroke-width:5.44428"
       id="rect4-7"
       width="20.13559"
       height="7.5508471"
       x="342.27075"
       y="248.73792" />
    <rect
       style="fill:#e60028;fill-opacity:1;stroke-width:5.44428"
       id="rect4-71"
       width="20.13559"
       height="7.5508471"
       x="342.11383"
       y="236.57994" />
    <rect
       style="fill:#e60028;fill-opacity:1;stroke-width:5.44428"
       id="rect4-77"
       width="20.13559"
       height="7.5508471"
       x="342.09186"
       y="225.19606" />
    <rect
       style="fill:#e60028;fill-opacity:1;stroke-width:5.44428"
       id="rect4-8"
       width="20.13559"
       height="7.5508471"
       x="341.76068"
       y="213.95662" />
    <rect
       style="fill:#e60028;fill-opacity:1;stroke-width:5.44428"
       id="rect4-7-2"
       width="20.13559"
       height="7.5508471"
       x="341.72638"
       y="201.56105" />
    <rect
       style="fill:#e60028;fill-opacity:1;stroke-width:5.44428"
       id="rect4-71-9"
       width="20.13559"
       height="7.5508471"
       x="341.56946"
       y="189.40309" />
    <rect
       style="fill:#e60028;fill-opacity:1;stroke-width:5.44428"
       id="rect4-77-8"
       width="20.13559"
       height="7.5508471"
       x="341.54749"
       y="178.01921" />
  </g>
</svg>
