<?xml version="1.0" encoding="UTF-8" standalone="no"?>
<svg
   viewBox="0,0,256,256"
   width="200px"
   height="200px"
   version="1.1"
   id="svg10"
   sodipodi:docname="matlab.svg"
   inkscape:version="1.3.1 (91b66b0, 2023-11-16)"
   xmlns:inkscape="http://www.inkscape.org/namespaces/inkscape"
   xmlns:sodipodi="http://sodipodi.sourceforge.net/DTD/sodipodi-0.dtd"
   xmlns="http://www.w3.org/2000/svg"
   xmlns:svg="http://www.w3.org/2000/svg">
  <defs
     id="defs10" />
  <sodipodi:namedview
     id="namedview10"
     pagecolor="#ffffff"
     bordercolor="#000000"
     borderopacity="0.25"
     inkscape:showpageshadow="2"
     inkscape:pageopacity="0.0"
     inkscape:pagecheckerboard="0"
     inkscape:deskcolor="#d1d1d1"
     inkscape:zoom="1.18"
     inkscape:cx="99.576271"
     inkscape:cy="99.576271"
     inkscape:window-width="1280"
     inkscape:window-height="800"
     inkscape:window-x="0"
     inkscape:window-y="0"
     inkscape:window-maximized="0"
     inkscape:current-layer="g10" />
  <g
     transform="translate(-12.8,-12.8) scale(1.1,1.1)"
     id="g10">
    <g
       transform="scale(2.56)"
       id="g8"
       style="font-family:none;mix-blend-mode:normal;fill:none;fill-rule:nonzero;stroke:#000000;stroke-width:0.90909091;stroke-miterlimit:10;stroke-dasharray:none;stroke-dashoffset:0;stroke-opacity:1">
      <path
         d="M 92.087,72.725 C 90.252,66.305 73.86,10 63.25,10 c -5.383,0 -9.383,6.454 -13.251,12.696 -2.481,4.004 -4.825,7.786 -7.208,9.336 -1.034,0.673 -1.965,1.19 -2.865,1.69 -1.808,1.004 -3.515,1.953 -5.415,3.854 -2.288,2.287 -3.926,4.543 -4.453,5.299 L 6.639,51.942 c -0.346,0.134 -0.589,0.449 -0.632,0.817 -0.043,0.368 0.122,0.73 0.428,0.94 L 24.31,65.95 24.313,65.945 c 0.2,0.137 0.446,0.205 0.699,0.171 0.045,-0.006 4.631,-0.601 8.789,1.894 8.058,4.834 8.199,18.852 8.199,18.993 10e-4,0.296 0.134,0.578 0.362,0.767 C 42.543,87.92 42.77,88 43,88 c 0.062,0 0.122,-0.005 0.183,-0.017 0.211,-0.039 5.209,-1.017 10.375,-6.125 3.115,-3.081 5.441,-6.676 7.493,-9.848 3.008,-4.65 5.605,-8.666 9.508,-9.283 5.492,-0.87 16.224,7.653 19.891,11.01 0.33,0.302 0.819,0.348 1.202,0.113 0.379,-0.235 0.557,-0.694 0.435,-1.125 z M 35.925,38.99 c 1.703,-1.703 3.218,-2.545 4.973,-3.52 0.93,-0.517 1.892,-1.051 2.984,-1.762 2.757,-1.793 5.215,-5.76 7.817,-9.958 1.683,-2.715 3.393,-5.466 5.176,-7.627 -2.265,4.03 -4.73,9.912 -7.708,17.257 -2.745,6.77 -5.337,13.164 -7.618,16.675 -0.048,0.074 -0.099,0.145 -0.147,0.218 l -9.308,-6.802 c 0.717,-0.978 2.085,-2.736 3.831,-4.481 z M 24.967,63.975 9.13,53.123 30.558,44.826 40.239,51.9 c -5.316,6.924 -13.23,11.08 -15.272,12.075 z m 45.279,-3.224 c -4.784,0.757 -7.606,5.12 -10.874,10.172 -1.997,3.086 -4.26,6.584 -7.221,9.512 -3.299,3.262 -6.543,4.69 -8.2,5.255 C 43.721,81.87 42.398,70.835 34.83,66.294 32.731,65.035 30.562,64.46 28.775,64.214 32.702,61.941 39.055,57.564 43.226,51.143 45.611,47.471 48.238,40.991 51.02,34.13 54.807,24.791 59.992,12 63.25,12 69.801,12 82.231,46.33 89.228,70.05 84.85,66.453 75.932,59.849 70.246,60.751 Z"
         fill="#000000"
         stroke="none"
         stroke-linecap="butt"
         stroke-linejoin="miter"
         id="path1"
         style="stroke-width:0.90909091;stroke-dasharray:none;stroke:#000000;stroke-opacity:1" />
      <path
         d="m 57.765,26.25 c -0.067,0 -0.136,-0.014 -0.201,-0.042 -0.253,-0.111 -0.367,-0.406 -0.257,-0.659 1.458,-3.323 2.675,-5.833 3.721,-7.671 0.136,-0.24 0.44,-0.325 0.682,-0.188 0.24,0.136 0.324,0.442 0.188,0.682 -1.028,1.809 -2.23,4.288 -3.674,7.579 -0.083,0.187 -0.267,0.299 -0.459,0.299 z"
         fill="#000000"
         stroke="none"
         stroke-linecap="butt"
         stroke-linejoin="miter"
         id="path2"
         style="stroke-width:0.90909091;stroke-dasharray:none;stroke:#000000;stroke-opacity:1" />
      <path
         d="m 56.213,29.875 c -0.064,0 -0.131,-0.013 -0.193,-0.039 -0.255,-0.107 -0.375,-0.4 -0.268,-0.655 l 0.423,-1.001 c 0.107,-0.255 0.399,-0.372 0.655,-0.266 0.254,0.108 0.373,0.401 0.265,0.655 l -0.421,0.999 c -0.08,0.192 -0.266,0.307 -0.461,0.307 z"
         fill="#000000"
         stroke="none"
         stroke-linecap="butt"
         stroke-linejoin="miter"
         id="path3"
         style="stroke-width:0.90909091;stroke-dasharray:none;stroke:#000000;stroke-opacity:1" />
      <path
         d="m 46.432,81.686 c -0.069,0 -0.139,-0.014 -0.204,-0.043 C 46.076,81.575 45.967,81.435 45.939,81.27 44.965,75.564 42.47,67.963 36.117,64.151 35.868,64.002 35.618,63.86 35.369,63.727 c -0.151,-0.081 -0.25,-0.232 -0.264,-0.403 -0.013,-0.17 0.063,-0.336 0.199,-0.438 4.226,-3.158 7.597,-6.65 10.02,-10.38 2.516,-3.874 5.186,-10.461 8.014,-17.436 0.403,-0.997 0.824,-2.014 1.282,-3.123 l 0.419,-1.013 c 0.105,-0.255 0.397,-0.374 0.652,-0.271 0.256,0.105 0.377,0.398 0.271,0.653 l -0.418,1.013 c -0.458,1.107 -0.878,2.123 -1.281,3.117 -2.846,7.02 -5.533,13.65 -8.102,17.604 -2.368,3.647 -5.612,7.067 -9.648,10.173 0.039,0.023 0.078,0.046 0.117,0.07 6.401,3.84 9.062,11.245 10.16,17.059 1.012,-0.693 1.984,-1.5 2.9,-2.406 1.135,-1.122 2.248,-2.428 3.405,-3.994 0.166,-0.222 0.48,-0.268 0.699,-0.104 0.223,0.164 0.27,0.477 0.105,0.699 -1.188,1.607 -2.335,2.952 -3.507,4.11 -1.154,1.142 -2.397,2.135 -3.695,2.952 -0.08,0.051 -0.173,0.077 -0.265,0.077 z"
         fill="#000000"
         stroke="none"
         stroke-linecap="butt"
         stroke-linejoin="miter"
         id="path4"
         style="stroke-width:0.90909091;stroke-dasharray:none;stroke:#000000;stroke-opacity:1" />
      <path
         d="m 58.186,67.25 c -0.445,0.671 -0.888,1.355 -1.334,2.044"
         fill="#ffffff"
         stroke="none"
         stroke-linecap="butt"
         stroke-linejoin="miter"
         id="path5"
         style="stroke-width:0.90909091;stroke-dasharray:none;stroke:#000000;stroke-opacity:1" />
      <path
         d="m 56.853,69.794 c -0.094,0 -0.188,-0.026 -0.271,-0.08 -0.231,-0.15 -0.298,-0.459 -0.148,-0.691 0.446,-0.691 0.89,-1.376 1.338,-2.049 0.152,-0.231 0.463,-0.292 0.693,-0.14 0.229,0.153 0.292,0.463 0.139,0.693 -0.444,0.669 -0.886,1.352 -1.33,2.039 -0.097,0.147 -0.258,0.228 -0.421,0.228 z"
         fill="#000000"
         stroke="none"
         stroke-linecap="butt"
         stroke-linejoin="miter"
         id="path6"
         style="stroke-width:0.90909091;stroke-dasharray:none;stroke:#000000;stroke-opacity:1" />
      <path
         d="m 59.651,65.625 c -0.102,0 -0.204,-0.031 -0.293,-0.095 -0.224,-0.162 -0.274,-0.475 -0.112,-0.698 2.378,-3.286 5.479,-6.751 10.453,-7.537 3.479,-0.555 7.834,0.723 13.106,3.852 -2.395,-7.483 -4.786,-14.379 -7.116,-20.514 -1.432,-3.77 -2.826,-7.213 -4.146,-10.234 -0.11,-0.253 0.005,-0.548 0.258,-0.658 0.254,-0.111 0.548,0.004 0.658,0.258 1.327,3.036 2.729,6.495 4.166,10.279 2.468,6.5 5.005,13.849 7.541,21.843 0.063,0.2 -0.005,0.418 -0.171,0.547 -0.165,0.128 -0.395,0.14 -0.571,0.028 -5.565,-3.497 -10.084,-4.964 -13.568,-4.413 -4.612,0.729 -7.542,4.017 -9.799,7.136 -0.098,0.134 -0.251,0.206 -0.406,0.206 z"
         fill="#000000"
         stroke="none"
         stroke-linecap="butt"
         stroke-linejoin="miter"
         id="path7"
         style="stroke-width:0.90909091;stroke-dasharray:none;stroke:#000000;stroke-opacity:1" />
      <path
         d="m 14.875,53.25 10.5,7.375"
         fill="#ffffff"
         stroke="#000000"
         stroke-linecap="round"
         stroke-linejoin="round"
         id="path8"
         style="stroke-width:0.90909091;stroke-dasharray:none;stroke:#000000;stroke-opacity:1" />
    </g>
  </g>
</svg>
