<?xml version="1.0" encoding="UTF-8" standalone="no"?>
<svg
   width="24px"
   height="24px"
   version="1.1"
   id="Layer_1"
   x="0px"
   y="0px"
   viewBox="0 0 74.4 74.4"
   style="enable-background:new 0 0 74.4 74.4;"
   xml:space="preserve"
   preserveAspectRatio="xMinYMid meet"
   sodipodi:docname="meinMOODLE2.svg"
   inkscape:version="1.1.2 (0a00cf5339, 2022-02-04)"
   inkscape:export-filename="meinMOODLE.png"
   inkscape:export-xdpi="96"
   inkscape:export-ydpi="96"
   fill="currentColor"
   xmlns:inkscape="http://www.inkscape.org/namespaces/inkscape"
   xmlns:sodipodi="http://sodipodi.sourceforge.net/DTD/sodipodi-0.dtd"
   xmlns="http://www.w3.org/2000/svg"
   xmlns:svg="http://www.w3.org/2000/svg"
   xmlns:rdf="http://www.w3.org/1999/02/22-rdf-syntax-ns#"
   xmlns:cc="http://creativecommons.org/ns#"
   xmlns:dc="http://purl.org/dc/elements/1.1/"><title
   id="title40787"
   fill="currentColor">meinMOODLE</title><defs
   id="defs33138"
   fill="currentColor" /><sodipodi:namedview
   id="namedview33136"
   pagecolor="#ffffff"
   bordercolor="#000000"
   borderopacity="0.25"
   inkscape:showpageshadow="2"
   inkscape:pageopacity="0.0"
   inkscape:pagecheckerboard="0"
   inkscape:deskcolor="#d1d1d1"
   showgrid="false"
   inkscape:lockguides="true"
   inkscape:zoom="13.906433"
   inkscape:cx="10.606602"
   inkscape:cy="14.633515"
   inkscape:window-width="1280"
   inkscape:window-height="800"
   inkscape:window-x="0"
   inkscape:window-y="32"
   inkscape:window-maximized="0"
   inkscape:current-layer="text13050"
   fill="currentColor"
   inkscape:pageshadow="2"><inkscape:grid
     type="xygrid"
     id="grid40643"
     fill="currentColor" /></sodipodi:namedview>

<g
   id="g33308"
   transform="translate(-87.829856,-1.3055156e-5)"
   fill="currentColor"><rect
     style="fill:#000000;fill-opacity:0"
     id="rect36676"
     width="67.487167"
     height="67.48716"
     x="91.286278"
     y="3.4564323"
     fill="currentColor" /><g
     id="g40727"
     transform="translate(0.10390466,-0.75347951)"
     fill="currentColor"><g
       aria-label="mein"
       transform="scale(0.84490488,1.1835652)"
       id="text13050"
       style="font-weight:bold;font-size:25.6827px;font-family:Arial;-inkscape-font-specification:'Arial, Bold';fill:#00718b;fill-opacity:1"
       fill="currentColor"><path
         d="m 112.17887,17.500319 h 4.10662 v 2.299072 q 2.20394,-2.679607 5.24823,-2.679607 1.61727,0 2.80645,0.665937 1.18917,0.665938 1.95025,2.01367 1.10989,-1.347732 2.3942,-2.01367 1.28431,-0.665937 2.74303,-0.665937 1.85511,0 3.13942,0.761071 1.28431,0.745217 1.91854,2.203938 0.45981,1.078185 0.45981,3.488246 v 10.765996 h -4.45544 v -9.624388 q 0,-2.505195 -0.45981,-3.234556 -0.61837,-0.95134 -1.90268,-0.95134 -0.93549,0 -1.75998,0.570804 -0.8245,0.570804 -1.18918,1.680701 -0.36468,1.094041 -0.36468,3.47239 v 8.086389 h -4.45544 v -9.227997 q 0,-2.457628 -0.23783,-3.171133 -0.23784,-0.713504 -0.74522,-1.062329 -0.49153,-0.348825 -1.34773,-0.348825 -1.03062,0 -1.85511,0.554949 -0.8245,0.554948 -1.18918,1.601422 -0.34882,1.046474 -0.34882,3.47239 v 8.181523 h -4.45545 z"
         style="font-size:32.4724px;fill:#00afd7;fill-opacity:1"
         id="path40729"
         fill="currentColor" /><path
         d="m 151.13624,28.97982 4.43959,0.745217 q -0.85621,2.441772 -2.71132,3.726081 -1.83926,1.268453 -4.614,1.268453 -4.39202,0 -6.50082,-2.869875 -1.66485,-2.299072 -1.66485,-5.803173 0,-4.185896 2.18809,-6.54839 2.18808,-2.378349 5.53362,-2.378349 3.7578,0 5.93002,2.489339 2.17223,2.473483 2.07709,7.594863 h -11.16238 q 0.0476,1.981958 1.07818,3.091855 1.03062,1.09404 2.56862,1.09404 1.04647,0 1.75998,-0.570803 0.7135,-0.570804 1.07818,-1.839258 z m 0.25369,-4.503008 q -0.0476,-1.934391 -0.9989,-2.933298 -0.95134,-1.014763 -2.31493,-1.014763 -1.45872,0 -2.41006,1.06233 -0.95134,1.062329 -0.93549,2.885731 z"
         style="font-size:32.4724px;fill:#00afd7;fill-opacity:1"
         id="path40731"
         fill="currentColor" /><path
         d="m 159.44461,15.217104 v -4.122473 h 4.45544 v 4.122473 z m 0,19.121931 V 17.500319 h 4.45544 v 16.838716 z"
         style="font-size:32.4724px;fill:#00afd7;fill-opacity:1"
         id="path40733"
         fill="currentColor" /><path
         d="m 183.78305,34.339035 h -4.45544 v -8.59377 q 0,-2.727174 -0.2854,-3.519958 -0.2854,-0.808638 -0.93548,-1.252597 -0.63423,-0.443959 -1.538,-0.443959 -1.15747,0 -2.07709,0.634227 -0.91963,0.634227 -1.26846,1.6807 -0.33297,1.046474 -0.33297,3.868782 v 7.626575 h -4.45544 V 17.500319 h 4.13833 v 2.473484 q 2.20394,-2.854019 5.54948,-2.854019 1.47458,0 2.69547,0.539092 1.22088,0.523237 1.83925,1.347732 0.63423,0.824494 0.87206,1.870968 0.25369,1.046474 0.25369,2.996721 z"
         style="font-size:32.4724px;fill:#00afd7;fill-opacity:1"
         id="path40735"
         fill="currentColor" /></g><g
       id="g40710"
       transform="matrix(1,0,0,1.1646684,0,-7.1466096)"
       fill="currentColor"><g
         aria-label="O"
         transform="scale(0.90682015,1.1027545)"
         id="text13104-4"
         style="font-weight:bold;font-size:12.4766px;font-family:Arial;-inkscape-font-specification:'Arial, Bold'"
         inkscape:transform-center-x="29.42523"
         inkscape:transform-center-y="-13.375105"
         fill="currentColor"><path
           d="m 121.56721,45.494006 q 0,-2.72304 1.76328,-4.41936 1.76328,-1.71864 4.50864,-1.71864 2.72304,0 4.48632,1.71864 1.7856,1.69632 1.7856,4.41936 0,2.72304 -1.7856,4.44168 -1.76328,1.69632 -4.48632,1.69632 -2.72304,0 -4.50864,-1.71864 -1.76328,-1.71864 -1.76328,-4.41936 z m 2.79,0 q 0,1.60704 0.93744,2.70072 0.95976,1.09368 2.54448,1.09368 1.58472,0 2.5668,-1.116 0.91512,-1.07136 0.91512,-2.6784 0,-1.62936 -0.93744,-2.70072 -0.93744,-1.07136 -2.54448,-1.07136 -1.58472,0 -2.54448,1.07136 -0.93744,1.07136 -0.93744,2.70072 z"
           style="font-weight:normal;font-size:22.32px;font-family:'Soul Papa';-inkscape-font-specification:'Soul Papa, Normal'"
           id="path40738"
           fill="currentColor" /></g><g
         aria-label="M"
         transform="scale(0.90682015,1.1027545)"
         id="text13104-4-4"
         style="font-weight:bold;font-size:12.4766px;font-family:Arial;-inkscape-font-specification:'Arial, Bold'"
         inkscape:transform-center-x="29.42523"
         inkscape:transform-center-y="-13.375105"
         fill="currentColor"><path
           d="m 117.92994,51.431125 v -6.56208 q 0,-3.16944 -2.07576,-3.16944 -2.09808,0 -2.09808,2.54448 v 7.18704 h -2.74536 v -6.56208 q 0,-3.16944 -2.09808,-3.16944 -2.09808,0 -2.09808,3.16944 v 6.56208 h -2.74536 v -7.63344 q 0,-2.16504 1.36152,-3.348 1.27224,-1.09368 3.48192,-1.09368 2.16504,0 3.48192,1.27224 1.29456,-1.27224 3.4596,-1.27224 2.18736,0 3.48192,1.09368 1.36152,1.18296 1.36152,3.348 v 7.63344 z"
           style="font-weight:normal;font-size:22.32px;font-family:'Soul Papa';-inkscape-font-specification:'Soul Papa, Normal'"
           id="path40741"
           fill="currentColor" /></g><g
         aria-label="O"
         transform="scale(0.90682015,1.1027545)"
         id="text13104-4-3"
         style="font-weight:bold;font-size:12.4766px;font-family:Arial;-inkscape-font-specification:'Arial, Bold'"
         inkscape:transform-center-x="29.42523"
         inkscape:transform-center-y="-13.375105"
         fill="currentColor"><path
           d="m 134.45869,45.494006 q 0,-2.72304 1.76328,-4.41936 1.76328,-1.71864 4.50864,-1.71864 2.72304,0 4.48632,1.71864 1.7856,1.69632 1.7856,4.41936 0,2.72304 -1.7856,4.44168 -1.76328,1.69632 -4.48632,1.69632 -2.72304,0 -4.50864,-1.71864 -1.76328,-1.71864 -1.76328,-4.41936 z m 2.79,0 q 0,1.60704 0.93744,2.70072 0.95976,1.09368 2.54448,1.09368 1.58472,0 2.5668,-1.116 0.91512,-1.07136 0.91512,-2.6784 0,-1.62936 -0.93744,-2.70072 -0.93744,-1.07136 -2.54448,-1.07136 -1.58472,0 -2.54448,1.07136 -0.93744,1.07136 -0.93744,2.70072 z"
           style="font-weight:normal;font-size:22.32px;font-family:'Soul Papa';-inkscape-font-specification:'Soul Papa, Normal'"
           id="path40744"
           fill="currentColor" /></g><g
         aria-label="D"
         transform="scale(0.90682015,1.1027545)"
         id="text13104-4-3-9"
         style="font-weight:bold;font-size:12.4766px;font-family:Arial;-inkscape-font-specification:'Arial, Bold'"
         inkscape:transform-center-x="29.42523"
         inkscape:transform-center-y="-13.375105"
         fill="currentColor"><path
           d="m 151.24001,51.431125 h -3.61584 V 39.556886 h 3.61584 q 2.38824,0 3.6828,0.7812 1.31688,0.7812 2.03112,2.14272 0.71424,1.36152 0.71424,2.92392 0,1.584719 -0.73656,3.013199 -0.73656,1.42848 -2.05344,2.232 -1.31688,0.7812 -3.63816,0.7812 z m 0.15624,-9.753839 h -1.02672 v 7.633439 h 1.116 q 1.62936,0 2.54448,-1.116 0.84816,-1.02672 0.84816,-2.700719 0,-1.71864 -0.87048,-2.72304 -0.91512,-1.09368 -2.61144,-1.09368 z"
           style="font-weight:normal;font-size:22.32px;font-family:'Soul Papa';-inkscape-font-specification:'Soul Papa, Normal'"
           id="path40747"
           fill="currentColor" /></g><g
         aria-label="L"
         transform="scale(0.90682015,1.1027545)"
         id="text13104-4-3-9-5"
         style="font-weight:bold;font-size:12.4766px;font-family:Arial;-inkscape-font-specification:'Arial, Bold'"
         inkscape:transform-center-x="29.42523"
         inkscape:transform-center-y="-13.375105"
         fill="currentColor"><path
           d="m 158.28979,51.408806 v -11.8296 h 2.74536 v 9.7092 h 3.1248 v 2.1204 z"
           style="font-weight:normal;font-size:22.32px;font-family:'Soul Papa';-inkscape-font-specification:'Soul Papa, Normal'"
           id="path40750"
           fill="currentColor" /></g><g
         aria-label="E"
         transform="scale(0.90682015,1.1027545)"
         id="text13104-4-3-9-5-6"
         style="font-weight:bold;font-size:12.4766px;font-family:Arial;-inkscape-font-specification:'Arial, Bold'"
         inkscape:transform-center-x="29.42523"
         inkscape:transform-center-y="-13.375105"
         fill="currentColor"><path
           d="m 164.78157,51.408806 v -11.8296 h 6.56208 v 2.0088 h -3.81672 v 2.83464 h 3.81672 v 2.0088 h -3.81672 v 2.85696 h 3.81672 v 2.1204 z"
           style="font-weight:normal;font-size:22.32px;font-family:'Soul Papa';-inkscape-font-specification:'Soul Papa, Normal'"
           id="path40753"
           fill="currentColor" /></g></g></g><text
     xml:space="preserve"
     style="font-style:normal;font-variant:normal;font-weight:normal;font-stretch:normal;font-size:24.8px;font-family:'Soul Papa';-inkscape-font-specification:'Soul Papa, Normal';font-variant-ligatures:normal;font-variant-caps:normal;font-variant-numeric:normal;font-variant-east-asian:normal"
     x="158.05273"
     y="65.100014"
     id="text36485"
     fill="currentColor"><tspan
       sodipodi:role="line"
       id="tspan36483"
       fill="currentColor" /></text><text
     xml:space="preserve"
     style="font-style:normal;font-variant:normal;font-weight:normal;font-stretch:normal;font-size:24.8px;font-family:'Soul Papa';-inkscape-font-specification:'Soul Papa, Normal';font-variant-ligatures:normal;font-variant-caps:normal;font-variant-numeric:normal;font-variant-east-asian:normal"
     x="158.05273"
     y="37.200012"
     id="text36489"
     fill="currentColor"><tspan
       sodipodi:role="line"
       id="tspan36487"
       fill="currentColor" /></text></g><metadata
   id="metadata40785"
   fill="currentColor"><rdf:RDF
     fill="currentColor"><cc:Work
       rdf:about=""
       fill="currentColor"><dc:title
         fill="currentColor">meinMOODLE</dc:title><dc:creator
         fill="currentColor"><cc:Agent
           fill="currentColor"><dc:title
             fill="currentColor">Christian-Maximilian Steier</dc:title></cc:Agent></dc:creator><dc:contributor
         fill="currentColor"><cc:Agent
           fill="currentColor"><dc:title
             fill="currentColor">Markus Dahm</dc:title></cc:Agent></dc:contributor><dc:description
         fill="currentColor">Logo für meinMOODLE, ein Dienst der FB Medien an der HSD</dc:description></cc:Work></rdf:RDF></metadata></svg>
